<?xml version="1.0" encoding="utf-8"?>
<!-- Generator: Adobe Illustrator 16.0.0, SVG Export Plug-In . SVG Version: 6.00 Build 0)  -->
<!DOCTYPE svg PUBLIC "-//W3C//DTD SVG 1.1//EN" "http://www.w3.org/Graphics/SVG/1.1/DTD/svg11.dtd">
<svg version="1.1" id="Layer_1" xmlns="http://www.w3.org/2000/svg" xmlns:xlink="http://www.w3.org/1999/xlink" x="0px" y="0px"
	 width="200px" height="40px" viewBox="0 0 200 40" enable-background="new 0 0 200 40" xml:space="preserve">
<g>
	<g>
		<path fill="#414141" d="M54.669,36.456c-0.025-0.65-0.051-1.438-0.051-2.224h-0.026c-0.179,0.69-0.418,1.461-0.641,2.095
			l-0.701,2.111h-1.017l-0.615-2.096c-0.188-0.634-0.384-1.404-0.521-2.11h-0.017c-0.034,0.73-0.06,1.565-0.103,2.239l-0.103,2.055
			H49.67l0.368-5.409h1.735l0.563,1.806c0.18,0.626,0.359,1.3,0.487,1.934h0.025c0.163-0.626,0.359-1.34,0.547-1.941l0.615-1.798
			h1.701l0.316,5.409h-1.273L54.669,36.456z"/>
		<path fill="#414141" d="M59.539,37.137l-0.41,1.389h-1.351l1.761-5.409h1.709l1.786,5.409h-1.401l-0.444-1.389H59.539z M61,36.222
			l-0.359-1.147c-0.103-0.321-0.205-0.723-0.291-1.043h-0.017c-0.085,0.32-0.171,0.729-0.265,1.043l-0.342,1.147H61z"/>
		<path fill="#414141" d="M64.997,33.117h1.29v2.392h0.026c0.128-0.209,0.265-0.401,0.393-0.594l1.308-1.798h1.598l-1.905,2.303
			l2.008,3.106h-1.521l-1.41-2.336l-0.496,0.57v1.766h-1.29V33.117z"/>
		<path fill="#414141" d="M72.746,33.117v5.409h-1.307v-5.409H72.746z"/>
		<path fill="#414141" d="M75.069,38.526v-5.409h1.521l1.196,1.982c0.342,0.569,0.684,1.243,0.94,1.854h0.025
			c-0.085-0.714-0.111-1.444-0.111-2.255v-1.581h1.196v5.409H78.47l-1.23-2.087c-0.342-0.578-0.718-1.276-1-1.91l-0.026,0.008
			c0.034,0.715,0.051,1.478,0.051,2.36v1.629H75.069z"/>
		<path fill="#414141" d="M86.97,38.277c-0.401,0.129-1.162,0.306-1.922,0.306c-1.051,0-1.812-0.249-2.341-0.73
			c-0.53-0.466-0.82-1.172-0.812-1.967c0.008-1.798,1.401-2.825,3.29-2.825c0.744,0,1.316,0.137,1.598,0.265l-0.273,0.979
			c-0.316-0.129-0.709-0.232-1.342-0.232c-1.085,0-1.905,0.577-1.905,1.749c0,1.116,0.743,1.774,1.812,1.774
			c0.299,0,0.538-0.032,0.641-0.081v-1.131h-0.889v-0.955h2.145V38.277z"/>
		<path fill="#414141" d="M92.881,34.144h-1.547v-1.027h4.427v1.027h-1.572v4.382h-1.308V34.144z"/>
		<path fill="#414141" d="M98.956,33.117v2.078h2.144v-2.078h1.299v5.409H101.1v-2.264h-2.144v2.264h-1.308v-5.409H98.956z"/>
		<path fill="#414141" d="M106.037,33.117v5.409h-1.307v-5.409H106.037z"/>
		<path fill="#414141" d="M108.361,38.526v-5.409h1.52l1.197,1.982c0.342,0.569,0.684,1.243,0.939,1.854h0.025
			c-0.084-0.714-0.111-1.444-0.111-2.255v-1.581h1.197v5.409h-1.367l-1.23-2.087c-0.342-0.578-0.719-1.276-1-1.91l-0.025,0.008
			c0.033,0.715,0.051,1.478,0.051,2.36v1.629H108.361z"/>
		<path fill="#414141" d="M120.262,38.277c-0.4,0.129-1.162,0.306-1.922,0.306c-1.051,0-1.813-0.249-2.342-0.73
			c-0.529-0.466-0.82-1.172-0.813-1.967c0.01-1.798,1.402-2.825,3.291-2.825c0.742,0,1.316,0.137,1.598,0.265l-0.273,0.979
			c-0.316-0.129-0.709-0.232-1.342-0.232c-1.086,0-1.906,0.577-1.906,1.749c0,1.116,0.744,1.774,1.813,1.774
			c0.299,0,0.539-0.032,0.641-0.081v-1.131h-0.889v-0.955h2.145V38.277z"/>
		<path fill="#414141" d="M122.516,37.266c0.352,0.168,0.889,0.337,1.445,0.337c0.598,0,0.914-0.233,0.914-0.586
			c0-0.337-0.273-0.53-0.965-0.763c-0.957-0.313-1.582-0.811-1.582-1.597c0-0.924,0.82-1.63,2.18-1.63
			c0.648,0,1.127,0.129,1.469,0.273l-0.289,0.986c-0.232-0.104-0.643-0.256-1.205-0.256c-0.564,0-0.838,0.24-0.838,0.521
			c0,0.345,0.324,0.497,1.068,0.762c1.016,0.354,1.494,0.852,1.494,1.613c0,0.907-0.742,1.678-2.324,1.678
			c-0.656,0-1.307-0.16-1.631-0.329L122.516,37.266z"/>
		<path fill="#F37C23" d="M134.631,36.239h-2.119v1.284h2.367v1.003h-3.674v-5.409h3.555v1.003h-2.248v1.124h2.119V36.239z"/>
		<path fill="#F37C23" d="M138.305,37.137l-0.41,1.389h-1.35l1.76-5.409h1.709l1.785,5.409h-1.4l-0.445-1.389H138.305z
			 M139.766,36.222l-0.359-1.147c-0.102-0.321-0.205-0.723-0.289-1.043H139.1c-0.086,0.32-0.172,0.729-0.266,1.043l-0.342,1.147
			H139.766z"/>
		<path fill="#F37C23" d="M143.805,37.266c0.352,0.168,0.889,0.337,1.445,0.337c0.598,0,0.914-0.233,0.914-0.586
			c0-0.337-0.273-0.53-0.965-0.763c-0.957-0.313-1.582-0.811-1.582-1.597c0-0.924,0.82-1.63,2.18-1.63
			c0.648,0,1.127,0.129,1.469,0.273l-0.289,0.986c-0.232-0.104-0.643-0.256-1.205-0.256c-0.564,0-0.838,0.24-0.838,0.521
			c0,0.345,0.324,0.497,1.068,0.762c1.016,0.354,1.494,0.852,1.494,1.613c0,0.907-0.742,1.678-2.324,1.678
			c-0.656,0-1.307-0.16-1.631-0.329L143.805,37.266z"/>
		<path fill="#F37C23" d="M150.906,38.526v-2.215l-1.82-3.194h1.486l0.59,1.3c0.18,0.394,0.299,0.683,0.443,1.035h0.018
			c0.129-0.337,0.266-0.65,0.436-1.035l0.582-1.3h1.461l-1.896,3.154v2.255H150.906z"/>
		<path fill="#414141" d="M158.842,33.117h3.52v1.003h-2.213v1.236h2.068v0.995h-2.068v2.175h-1.307V33.117z"/>
		<path fill="#414141" d="M169.811,35.765c0,1.773-1.145,2.849-2.828,2.849c-1.709,0-2.709-1.212-2.709-2.753
			c0-1.621,1.104-2.833,2.803-2.833C168.846,33.028,169.811,34.272,169.811,35.765z M165.65,35.837c0,1.06,0.529,1.806,1.4,1.806
			c0.881,0,1.385-0.787,1.385-1.838c0-0.972-0.496-1.806-1.393-1.806C166.162,34,165.65,34.786,165.65,35.837z"/>
		<path fill="#414141" d="M171.861,33.189c0.418-0.064,1.041-0.113,1.734-0.113c0.854,0,1.451,0.121,1.861,0.426
			c0.342,0.257,0.531,0.634,0.531,1.132c0,0.69-0.521,1.164-1.018,1.332v0.024c0.402,0.152,0.623,0.514,0.77,1.011
			c0.18,0.61,0.359,1.316,0.469,1.525h-1.332c-0.094-0.152-0.23-0.594-0.402-1.26c-0.152-0.675-0.4-0.859-0.932-0.867h-0.393v2.127
			h-1.289V33.189z M173.15,35.516h0.514c0.648,0,1.033-0.305,1.033-0.778c0-0.498-0.359-0.747-0.957-0.755
			c-0.316,0-0.496,0.024-0.59,0.04V35.516z"/>
		<path fill="#414141" d="M182.035,38.526v-2.215l-1.82-3.194h1.486l0.59,1.3c0.18,0.394,0.299,0.683,0.445,1.035h0.018
			c0.127-0.337,0.264-0.65,0.436-1.035l0.58-1.3h1.461l-1.896,3.154v2.255H182.035z"/>
		<path fill="#414141" d="M191.92,35.765c0,1.773-1.145,2.849-2.828,2.849c-1.709,0-2.709-1.212-2.709-2.753
			c0-1.621,1.104-2.833,2.803-2.833C190.955,33.028,191.92,34.272,191.92,35.765z M187.76,35.837c0,1.06,0.529,1.806,1.4,1.806
			c0.881,0,1.385-0.787,1.385-1.838c0-0.972-0.496-1.806-1.393-1.806C188.271,34,187.76,34.786,187.76,35.837z"/>
		<path fill="#414141" d="M195.27,33.117v3.113c0,0.932,0.375,1.405,1.041,1.405c0.684,0,1.061-0.45,1.061-1.405v-3.113h1.299v3.033
			c0,1.67-0.898,2.464-2.402,2.464c-1.451,0-2.307-0.754-2.307-2.479v-3.018H195.27z"/>
	</g>
	<path fill="#F27B21" d="M59.623,6.764h-5.777v21.94h-4.577V6.764h-5.749V1.836h16.104V6.764z"/>
	<path fill="#F27B21" d="M93.212,27.749c-1.479,0.949-3.408,1.424-5.791,1.424c-3.108,0-5.552-1.211-7.332-3.634
		c-1.779-2.425-2.669-5.653-2.669-9.688c0-4.298,1-7.782,3.001-10.455c2.002-2.673,4.599-4.01,7.791-4.01
		c1.978,0,3.645,0.331,5,0.993v5.827c-1.355-1.074-2.9-1.611-4.633-1.611c-1.902,0-3.438,0.794-4.605,2.38s-1.751,3.734-1.751,6.445
		c0,2.598,0.551,4.668,1.652,6.21c1.102,1.543,2.586,2.314,4.45,2.314c1.779,0,3.408-0.574,4.887-1.724V27.749z"/>
	<path fill="#F27B21" d="M112.586,28.705h-4.576V17.762h-8.391v10.942h-4.563V1.836h4.563v10.717h8.391V1.836h4.576V28.705z"/>
	<path fill="#F27B21" d="M126.396,6.764h-7.148v6.595h6.568v4.909h-6.568v10.437h-4.563V1.836h11.711V6.764z"/>
	<path fill="#F27B21" d="M137.447,29.172c-2.902,0-5.266-1.252-7.092-3.757c-1.828-2.503-2.74-5.767-2.74-9.79
		c0-4.246,0.926-7.682,2.781-10.305s4.314-3.935,7.375-3.935c2.891,0,5.229,1.255,7.014,3.767c1.783,2.51,2.678,5.82,2.678,9.93
		c0,4.223-0.928,7.627-2.777,10.212S140.422,29.172,137.447,29.172z M137.645,6.595c-1.602,0-2.873,0.796-3.814,2.389
		s-1.412,3.7-1.412,6.323c0,2.661,0.471,4.766,1.412,6.314c0.941,1.55,2.176,2.323,3.701,2.323c1.572,0,2.82-0.753,3.744-2.257
		c0.922-1.506,1.385-3.595,1.385-6.268c0-2.785-0.449-4.953-1.344-6.502S139.197,6.595,137.645,6.595z"/>
	<path fill="#F27B21" d="M166.129,28.705h-5.242l-3.148-6.914c-0.238-0.525-0.463-0.993-0.68-1.405s-0.436-0.765-0.656-1.059
		c-0.221-0.293-0.451-0.519-0.693-0.674c-0.24-0.156-0.5-0.234-0.783-0.234h-1.229v10.286h-4.563V1.836h7.23
		c4.918,0,7.375,2.436,7.375,7.307c0,0.938-0.107,1.802-0.324,2.596c-0.217,0.793-0.523,1.508-0.92,2.145
		c-0.395,0.638-0.873,1.188-1.432,1.648c-0.561,0.463-1.186,0.825-1.871,1.088v0.074c0.301,0.125,0.592,0.328,0.875,0.609
		c0.281,0.281,0.555,0.608,0.818,0.984c0.264,0.374,0.516,0.777,0.756,1.207c0.24,0.432,0.459,0.854,0.658,1.266L166.129,28.705z
		 M153.697,6.37v7.477h1.977c0.98,0,1.766-0.375,2.359-1.124c0.604-0.762,0.904-1.706,0.904-2.829c0-2.349-1.059-3.523-3.178-3.523
		H153.697z"/>
	<path fill="#F27B21" d="M180.854,27.749c-1.479,0.949-3.41,1.424-5.791,1.424c-3.109,0-5.553-1.211-7.332-3.634
		c-1.779-2.425-2.67-5.653-2.67-9.688c0-4.298,1-7.782,3.002-10.455s4.598-4.01,7.789-4.01c1.979,0,3.646,0.331,5.002,0.993v5.827
		c-1.355-1.074-2.9-1.611-4.633-1.611c-1.904,0-3.438,0.794-4.605,2.38s-1.752,3.734-1.752,6.445c0,2.598,0.551,4.668,1.652,6.21
		c1.102,1.543,2.586,2.314,4.451,2.314c1.779,0,3.408-0.574,4.887-1.724V27.749z"/>
	<g>
		<polygon fill="#E96F24" points="76.523,28.811 76.523,25.363 76.523,24.197 65.479,24.197 65.479,16.834 74.7,16.834 74.7,11.842 
			61.191,11.842 61.191,28.811 		"/>
		<rect x="61.191" y="1.731" fill="#414141" width="15.332" height="5.216"/>
	</g>
	<g>
		<polygon fill="#E96F24" points="198.268,28.811 198.268,25.363 198.268,24.197 187.223,24.197 187.223,16.834 196.445,16.834 
			196.445,11.842 182.936,11.842 182.936,28.811 		"/>
		<rect x="182.936" y="1.731" fill="#414141" width="15.332" height="5.216"/>
	</g>
	<g>
		<g>
			<path fill="#F37C23" d="M5.943,2.115c-2.545,0-4.612,2.063-4.612,4.612v12.04L24.119,2.115H5.943z"/>
			<path fill="#F37C23" d="M1.331,33.704c0,2.551,2.067,4.611,4.612,4.611h3.795V19.428l-8.407,6.156V33.704z"/>
			<path fill="#F37C23" d="M30.784,2.041l0.024,1.968v34.307h2.114c2.546,0,4.612-2.061,4.612-4.611V6.727
				C37.535,4.321,37.991,1.237,30.784,2.041z"/>
			<polygon fill="#F37C23" points="19.759,23.384 19.799,17.62 24.987,13.684 24.987,8.309 15.026,15.671 15.026,38.315 
				19.661,38.315 19.732,27.996 24.987,24.426 24.987,19.531 			"/>
			<path fill="#F37C23" d="M30.808,3.977"/>
			<path fill="#F37C23" d="M24.987,8.309"/>
			<path fill="#F37C23" d="M30.808,38.315"/>
			<path fill="#F37C23" d="M24.987,13.684"/>
		</g>
	</g>
</g>
</svg>
