<?xml version="1.0" encoding="UTF-8"?><svg id="Layer_1" xmlns="http://www.w3.org/2000/svg" width="500" height="500" viewBox="0 0 500 500"><defs><style>.cls-1{fill:#4c4c4c;}.cls-2{fill:#f37c23;}.cls-3{fill:#f5eeec;stroke:#5b5b5b;stroke-miterlimit:10;}</style></defs><path class="cls-3" d="m452.6,309.42c0-19.56,0-39.12,0-58.67,0-56.8,0-113.59,0-170.39,0-.38-.01-.75-.02-1.12,0-.11,0-.21,0-.32,0-18.95-14.57-33.45-33.51-33.45-110,0-220.01,0-330.01-.02-18.06,0-32.66,14.55-32.66,32.7,0,11.82,0,23.64,0,35.46h0c0,19.42,0,38.84,0,58.26,0,56.93,0,113.87,0,170.8,0,.38.01.75.02,1.12,0,.11,0,.21,0,.32,0,18.95,14.57,33.45,33.51,33.45,110,0,220.01,0,330.01.02,18.06,0,32.66-14.55,32.66-32.7,0-11.82,0-23.64,0-35.46h0Z"/><path class="cls-1" d="m64.5,365.5c8.35-11.54,17.58-23.4,26.15-34.77,24.45-32.48,47.84-65.73,71.68-98.65,5.34-7.38,19.91-8.31,25.46-1.38,9.07,11.33,18.77,22.14,28.06,33.29,2.57,3.08,6.8,3.08,9.39.02,19.97-23.57,39.93-47.16,59.76-70.85,8.39-10.02,20.48-10.07,28.36.39,28.41,37.71,137.65,157.74,138.19,158.62-5.52,22.06-25.52,24.82-27.58,24.82-35.7.01-280.88-.19-336.48-.32-8.72-.02-17.32-4.24-22.99-11.16Z"/><path class="cls-2" d="m145.89,185.86c-27,.07-49.23-22.72-49.08-49.64.15-26.67,21.17-50.34,51.08-49.46,27.46.8,48.75,21.44,48.65,49.77-.1,28.58-23.05,49.8-50.65,49.33Z"/><path class="cls-2" d="m306.96,95c5.49,0,10.98.1,16.47-.04,2.71-.07,4.07.52,4,3.64-.17,8.57-.17,17.16,0,25.73.06,3.03-1.13,3.76-3.92,3.73-11.15-.12-22.3-.11-33.45,0-2.71.03-4.07-.52-4-3.64.18-8.57.17-17.16,0-25.73-.06-3.03,1.12-3.81,3.92-3.73,5.66.16,11.32.05,16.98.05Z"/><path class="cls-2" d="m382.69,95c5.49,0,10.98.11,16.47-.05,2.77-.08,4.02.63,3.96,3.7-.17,8.57-.17,17.16,0,25.73.06,3.09-1.23,3.7-3.97,3.68-11.15-.11-22.3-.11-33.45,0-2.76.03-4.01-.63-3.95-3.7.17-8.57.17-17.16,0-25.73-.06-3.09,1.23-3.75,3.97-3.68,5.66.15,11.32.05,16.98.05Z"/></svg>