<?xml version="1.0" encoding="UTF-8"?><svg xmlns="http://www.w3.org/2000/svg" width="500" height="500" viewBox="0 0 500 500"><defs><style>.cls-1{fill:#4c4c4c;}.cls-2,.cls-3{fill:#f37c23;}.cls-3{stroke:#444;}.cls-3,.cls-4{stroke-miterlimit:10;}.cls-5,.cls-4{fill:#f5eeec;}.cls-4{stroke:#5b5b5b;}</style></defs><g id="Layer_1"><path class="cls-4" d="m420.6,309.42c0-19.56,0-39.12,0-58.67,0-56.8,0-113.59,0-170.39,0-.38-.01-.75-.02-1.12,0-.11,0-.21,0-.32,0-18.95-14.57-33.45-33.51-33.45-110,0-220.01,0-330.01-.02-18.06,0-32.66,14.55-32.66,32.7,0,11.82,0,23.64,0,35.46h0c0,19.42,0,38.84,0,58.26,0,56.93,0,113.87,0,170.8,0,.38.01.75.02,1.12,0,.11,0,.21,0,.32,0,18.95,14.57,33.45,33.51,33.45,110,0,220.01,0,330.01.02,18.06,0,32.66-14.55,32.66-32.7,0-11.82,0-23.64,0-35.46h0Z"/><path class="cls-1" d="m32.5,366.5c8.35-11.54,17.58-24.4,26.15-35.77,24.45-32.48,47.84-65.73,71.68-98.65,5.34-7.38,19.91-8.31,25.46-1.38,9.07,11.33,18.77,22.14,28.06,33.29,2.57,3.08,6.8,3.08,9.39.02,19.97-23.57,39.93-47.16,59.76-70.85,8.39-10.02,20.48-10.07,28.36.39,28.41,37.71,137.65,157.74,138.19,158.62-5.52,22.06-25.52,24.82-27.58,24.82-35.7.01-279.87.66-335.47.52-8.72-.02-18.33-4.08-24-11Z"/><path class="cls-2" d="m113.89,185.86c-27,.07-49.23-22.72-49.08-49.64.15-26.67,21.17-50.34,51.08-49.46,27.46.8,48.75,21.44,48.65,49.77-.1,28.58-23.05,49.8-50.65,49.33Z"/><path class="cls-2" d="m274.96,95c5.49,0,10.98.1,16.47-.04,2.71-.07,4.07.52,4,3.64-.17,8.57-.17,17.16,0,25.73.06,3.03-1.13,3.76-3.92,3.73-11.15-.12-22.3-.11-33.45,0-2.71.03-4.07-.52-4-3.64.18-8.57.17-17.16,0-25.73-.06-3.03,1.12-3.81,3.92-3.73,5.66.16,11.32.05,16.98.05Z"/><path class="cls-2" d="m350.69,95c5.49,0,10.98.11,16.47-.05,2.77-.08,4.02.63,3.96,3.7-.17,8.57-.17,17.16,0,25.73.06,3.09-1.23,3.7-3.97,3.68-11.15-.11-22.3-.11-33.45,0-2.76.03-4.01-.63-3.95-3.7.17-8.57.17-17.16,0-25.73-.06-3.09,1.23-3.75,3.97-3.68,5.66.15,11.32.05,16.98.05Z"/></g><g id="Layer_3"><path class="cls-3" d="m478.1,349.96c-.02-20.31-.08-40.62-.12-60.93h0c.25-2.63-.4-5.18-1.22-7.56-3.6-10.4-11.61-16.16-23.04-16.31-15.81-.2-31.62-.12-47.43-.16-12.7,0-25.41,0-38.11,0-1.49.04-2.98.12-4.47.12-25.89,0-51.78.33-77.66-.14-12.08-.22-24.04,12.25-23.52,23.11.4,8.32-.01,16.67-.06,25.01.05,1.49.15,2.98.15,4.47,0,30.75.26,61.5-.12,92.25-.14,11.18,12.64,24.81,24.04,22.79.5.04.99.11,1.49.11,56.2,0,112.4-.02,168.6-.04.98,0,1.91-.03,2.9-.38,13.02-4.61,18.58-12.29,18.59-25.89,0-18.82.02-37.63,0-56.45Z"/><path class="cls-5" d="m333.29,413.19c-7.19,0-13.13-1.72-17.84-5.17-4.71-3.45-7.06-7.98-7.06-13.62,0-2.94.78-7.44,2.33-13.49,1.55-6.05,2.33-10.65,2.33-13.8,0-8.32-4.39-12.77-13.17-13.36v-5.29c4.16-.34,7.4-1.8,9.71-4.38,2.31-2.58,3.47-5.94,3.47-10.05,0-2.86-.78-6.92-2.33-12.2-1.56-5.27-2.33-9.19-2.33-11.76,0-5.38,2.34-9.73,7.03-13.05,4.69-3.32,10.45-4.98,17.3-4.98h9.33v8.38h-11.03c-6.89,0-10.34,3.87-10.34,11.6,0,2.73.66,6.24,1.99,10.53,1.32,4.29,1.99,7.71,1.99,10.27,0,6.64-4.73,12.69-14.18,18.15,4.41,1.81,7.88,4.16,10.4,7.06,2.52,2.9,3.78,5.8,3.78,8.7,0,2.73-.66,6.51-1.99,11.35-1.32,4.83-1.99,8.8-1.99,11.91,0,9.58,5.52,14.37,16.58,14.37h4.79v8.82h-8.76Z"/><path class="cls-5" d="m359.01,409.6l-3.21-4.54c7.23-5.93,10.84-10.97,10.84-15.13,0-1.85-.63-3.7-1.89-5.55-3.61-1.72-5.42-4.2-5.42-7.44,0-2.23.86-4.07,2.58-5.52,1.72-1.45,3.89-2.17,6.49-2.17,2.31,0,4.38,1.01,6.21,3.03,1.83,2.02,2.74,4.37,2.74,7.06,0,5.59-1.17,10.62-3.5,15.1-2.33,4.48-7.28,9.53-14.84,15.16Zm8.19-91.65c2.6,0,4.83.92,6.68,2.77,1.85,1.85,2.77,4.08,2.77,6.68s-.92,4.84-2.77,6.71c-1.85,1.87-4.08,2.81-6.68,2.81s-4.83-.93-6.68-2.81c-1.85-1.87-2.77-4.11-2.77-6.71s.92-4.83,2.77-6.68,4.08-2.77,6.68-2.77Z"/><path class="cls-5" d="m394.68,413.19v-8.82h4.79c11.05,0,16.58-4.79,16.58-14.37,0-3.11-.66-7.08-1.99-11.91-1.32-4.83-1.99-8.61-1.99-11.35,0-2.9,1.26-5.8,3.78-8.7,2.52-2.9,5.99-5.25,10.4-7.06-9.46-5.46-14.18-11.51-14.18-18.15,0-2.56.66-5.99,1.99-10.27,1.32-4.29,1.99-7.79,1.99-10.53,0-7.73-3.45-11.6-10.34-11.6h-11.03v-8.38h9.33c6.85,0,12.62,1.66,17.3,4.98,4.69,3.32,7.03,7.67,7.03,13.05,0,2.56-.78,6.48-2.33,11.76-1.56,5.27-2.33,9.34-2.33,12.2,0,4.12,1.16,7.47,3.47,10.05,2.31,2.58,5.55,4.04,9.71,4.38v5.29c-8.78.59-13.17,5.04-13.17,13.36,0,3.11.78,7.66,2.33,13.65,1.55,5.99,2.33,10.54,2.33,13.65,0,5.63-2.35,10.17-7.06,13.62-4.71,3.45-10.65,5.17-17.84,5.17h-8.76Z"/></g></svg>